<svg id="Layer_2_copy" data-name="Layer 2 copy" xmlns="http://www.w3.org/2000/svg" viewBox="0 0 240.5 99.49"><defs><style>.cls-1{fill:#522e91;}.cls-2,.cls-3{stroke:#000;stroke-width:0.5px;}.cls-3{fill:#fff;}</style></defs><title>IAPR</title><path class="cls-1" d="M132.5,37.5V94.14h-9.72V37.86c0-.17,0-.34.12-.36Z" transform="translate(-28.33 -22.97)"/><path class="cls-1" d="M96.14,37.46V94.34H86.3V37.82c0-.17,0-.34.12-.36Z" transform="translate(-28.33 -22.97)"/><path class="cls-1" d="M54.14,37.58V94.34H44.06V37.94c0-.17,0-.34.12-.36Z" transform="translate(-28.33 -22.97)"/><path class="cls-1" d="M38.18,37.58V94.34H28.34V37.94c0-.17,0-.34.12-.36Z" transform="translate(-28.33 -22.97)"/><path class="cls-1" d="M120.34,52.82a19.28,19.28,0,0,0-18.85-15.37H97.68V46h3.81a10.68,10.68,0,0,1,0,21.35H97.68v8.57h3.81a19.28,19.28,0,0,0,18.85-15.37,19.45,19.45,0,0,0,0-7.75Z" transform="translate(-28.33 -22.97)"/><path class="cls-1" d="M268.83,56.7l-8.37-.05-.09,1.48C254.8,111.33,207.91,114,198.51,114c-.79,0-1.3,0-1.48,0-34.34-1.31-47.51-25.3-52.3-39.48l0-.11.63-.21,0,0v0l.13,0a19,19,0,0,0,11.7-17.57,18.88,18.88,0,0,0-.39-3.84A19.23,19.23,0,0,0,138,37.5h-3.68v8.28H138a10.81,10.81,0,0,1,1,21.58l-1.21,0-2.79,0h-.86c0,.12.05.25.08.39.34,1.55,1.08,4.66,2.09,7.79l.11.35a78.44,78.44,0,0,0,9,18.66c8.12,12.09,23.6,26.72,51.3,27.77.11,0,.66,0,1.57,0a81.9,81.9,0,0,0,32.07-6.86c15.08-6.72,33.56-21.35,38.06-53a1.09,1.09,0,0,1,0-.18C268.57,61.38,268.83,56.7,268.83,56.7Z" transform="translate(-28.33 -22.97)"/><path class="cls-1" d="M81.5,63.14c-.35-4.72-1.17-7.34-3.24-10.56a32.36,32.36,0,0,0-6.72-7.92,32.57,32.57,0,0,0-5.88-4.2,22.25,22.25,0,0,0-9.6-2.88c-.14,0-.13.19-.12.36v9.48a10.67,10.67,0,0,1,6.6,1.8,23.4,23.4,0,0,1,7.92,9.48,18.57,18.57,0,0,1,1.32,4.8c.11,1.12.19,3.46-.24,4.08a1.53,1.53,0,0,1-.79.46H55.62v8.51h.08v0h8.64l1.28,0h3.49c1.14.11,2.82.07,2.79,1.11V94.34h9.6C81,84,82.22,72.87,81.5,63.14Z" transform="translate(-28.33 -22.97)"/><path class="cls-2" d="M198.11,28.75a38.08,38.08,0,0,1,3.26-4.83,39.07,39.07,0,0,0-25,16.41,41.1,41.1,0,0,0,1.13,5.73A35.25,35.25,0,0,1,198.11,28.75Z" transform="translate(-28.33 -22.97)"/><path class="cls-3" d="M208.71,27.12a34.88,34.88,0,0,1,16.19,4A39.69,39.69,0,0,1,230.63,30a39,39,0,0,0-29.26-6,38.08,38.08,0,0,0-3.26,4.83A35,35,0,0,1,208.71,27.12Z" transform="translate(-28.33 -22.97)"/><path class="cls-2" d="M175.2,72.86a40.32,40.32,0,0,1-4.83-3.26,39,39,0,0,0,16.41,25,41,41,0,0,0,5.73-1.12A35.31,35.31,0,0,1,175.2,72.86Z" transform="translate(-28.33 -22.97)"/><path class="cls-3" d="M173.57,62.26a35,35,0,0,1,4-16.2,41.1,41.1,0,0,1-1.13-5.73,39,39,0,0,0-6,29.27,40.32,40.32,0,0,0,4.83,3.26A35.39,35.39,0,0,1,173.57,62.26Z" transform="translate(-28.33 -22.97)"/><path class="cls-3" d="M243.84,62.26a35,35,0,0,1-4,16.19A39.63,39.63,0,0,1,241,84.18a38.84,38.84,0,0,0,6.74-21.92,39.37,39.37,0,0,0-.7-7.34,39.35,39.35,0,0,0-4.84-3.27A35.09,35.09,0,0,1,243.84,62.26Z" transform="translate(-28.33 -22.97)"/><path class="cls-2" d="M230.63,30a39.69,39.69,0,0,0-5.73,1.13,35.19,35.19,0,0,1,17.31,20.57,39.35,39.35,0,0,1,4.84,3.27A39.06,39.06,0,0,0,230.63,30Z" transform="translate(-28.33 -22.97)"/><path class="cls-2" d="M219.31,95.76a41.28,41.28,0,0,1-3.26,4.84,39,39,0,0,0,25-16.42,39.63,39.63,0,0,0-1.12-5.73A35.21,35.21,0,0,1,219.31,95.76Z" transform="translate(-28.33 -22.97)"/><path class="cls-3" d="M208.71,97.39a35,35,0,0,1-16.2-4,41,41,0,0,1-5.73,1.12,38.87,38.87,0,0,0,21.93,6.74,39.45,39.45,0,0,0,7.34-.7,41.28,41.28,0,0,0,3.26-4.84A35.07,35.07,0,0,1,208.71,97.39Z" transform="translate(-28.33 -22.97)"/><path class="cls-2" d="M208.71,91.54a28.94,28.94,0,0,1-8.38-1.23,35.5,35.5,0,0,1-7.82,3.13,35.23,35.23,0,0,0,26.8,2.32A35,35,0,0,0,222.63,88,29.17,29.17,0,0,1,208.71,91.54Z" transform="translate(-28.33 -22.97)"/><path class="cls-3" d="M182.94,76.18a35.43,35.43,0,0,1-7.74-3.32,35.31,35.31,0,0,0,17.31,20.58,35.5,35.5,0,0,0,7.82-3.13A29.34,29.34,0,0,1,182.94,76.18Z" transform="translate(-28.33 -22.97)"/><path class="cls-2" d="M179.43,62.26a29.4,29.4,0,0,1,1.22-8.39,34.91,34.91,0,0,1-3.12-7.81,35,35,0,0,0-4,16.2,35.39,35.39,0,0,0,1.63,10.6,35.43,35.43,0,0,0,7.74,3.32A29.16,29.16,0,0,1,179.43,62.26Z" transform="translate(-28.33 -22.97)"/><path class="cls-3" d="M194.79,36.49a35.22,35.22,0,0,1,3.32-7.74,35.25,35.25,0,0,0-20.58,17.31,34.91,34.91,0,0,0,3.12,7.81A29.4,29.4,0,0,1,194.79,36.49Z" transform="translate(-28.33 -22.97)"/><path class="cls-3" d="M234.47,48.34a35.47,35.47,0,0,1,7.74,3.31A35.19,35.19,0,0,0,224.9,31.08a34.91,34.91,0,0,0-7.81,3.12A29.33,29.33,0,0,1,234.47,48.34Z" transform="translate(-28.33 -22.97)"/><path class="cls-3" d="M222.63,88a35,35,0,0,1-3.32,7.74,35.21,35.21,0,0,0,20.58-17.31,35.43,35.43,0,0,0-3.13-7.81A29.32,29.32,0,0,1,222.63,88Z" transform="translate(-28.33 -22.97)"/><path class="cls-2" d="M198.11,28.75a35.22,35.22,0,0,0-3.32,7.74,29.37,29.37,0,0,1,22.3-2.29,34.91,34.91,0,0,1,7.81-3.12,35.15,35.15,0,0,0-26.79-2.33Z" transform="translate(-28.33 -22.97)"/><path class="cls-2" d="M238,62.26a29,29,0,0,1-1.23,8.38,35.43,35.43,0,0,1,3.13,7.81,35.23,35.23,0,0,0,2.32-26.8,35.47,35.47,0,0,0-7.74-3.31A29.17,29.17,0,0,1,238,62.26Z" transform="translate(-28.33 -22.97)"/><path class="cls-2" d="M207.7,84.19a21.86,21.86,0,0,1-15.21-7.13,24,24,0,0,1-9.55-.88,29.34,29.34,0,0,0,17.39,14.13A23.88,23.88,0,0,0,207.7,84.19Z" transform="translate(-28.33 -22.97)"/><path class="cls-3" d="M223.51,78.48a21.9,21.9,0,0,1-14.8,5.74c-.34,0-.68,0-1,0a23.88,23.88,0,0,1-7.37,6.12A29.24,29.24,0,0,0,222.63,88,24,24,0,0,0,223.51,78.48Z" transform="translate(-28.33 -22.97)"/><path class="cls-2" d="M230.64,63.27a21.88,21.88,0,0,1-7.13,15.21,24,24,0,0,1-.88,9.54,29.32,29.32,0,0,0,14.13-17.38A23.76,23.76,0,0,0,230.64,63.27Z" transform="translate(-28.33 -22.97)"/><path class="cls-3" d="M192.49,77.06a21.85,21.85,0,0,1-5.74-14.8c0-.34,0-.68,0-1a24.08,24.08,0,0,1-6.12-7.38,29.39,29.39,0,0,0,2.29,22.31A24,24,0,0,0,192.49,77.06Z" transform="translate(-28.33 -22.97)"/><path class="cls-3" d="M193.9,46a21.87,21.87,0,0,1,14.81-5.74l1,0a23.9,23.9,0,0,1,7.37-6.12,29.37,29.37,0,0,0-22.3,2.29A24,24,0,0,0,193.9,46Z" transform="translate(-28.33 -22.97)"/><path class="cls-2" d="M180.65,53.87a24.08,24.08,0,0,0,6.12,7.38A21.94,21.94,0,0,1,193.9,46a24,24,0,0,1,.89-9.55A29.4,29.4,0,0,0,180.65,53.87Z" transform="translate(-28.33 -22.97)"/><path class="cls-3" d="M224.93,47.45a21.92,21.92,0,0,1,5.74,14.81c0,.34,0,.67,0,1a23.76,23.76,0,0,1,6.12,7.37,29.24,29.24,0,0,0-2.29-22.3A24,24,0,0,0,224.93,47.45Z" transform="translate(-28.33 -22.97)"/><path class="cls-2" d="M209.72,40.32a21.92,21.92,0,0,1,15.21,7.13,24,24,0,0,1,9.54.89A29.33,29.33,0,0,0,217.09,34.2,23.9,23.9,0,0,0,209.72,40.32Z" transform="translate(-28.33 -22.97)"/><path class="cls-2" d="M211.58,73.88a18.34,18.34,0,0,1-3.88,10.31c.33,0,.67,0,1,0a21.9,21.9,0,0,0,14.8-5.74,18.33,18.33,0,0,0-4.55-10A12,12,0,0,1,211.58,73.88Z" transform="translate(-28.33 -22.97)"/><path class="cls-3" d="M220.69,62.26A11.94,11.94,0,0,1,219,68.44a18.33,18.33,0,0,1,4.55,10,21.88,21.88,0,0,0,7.13-15.21,18.34,18.34,0,0,0-10.31-3.88A11.81,11.81,0,0,1,220.69,62.26Z" transform="translate(-28.33 -22.97)"/><path class="cls-3" d="M208.71,74.24a11.89,11.89,0,0,1-6.18-1.73,18.37,18.37,0,0,1-10,4.55,21.86,21.86,0,0,0,15.21,7.13,18.34,18.34,0,0,0,3.88-10.31A11.81,11.81,0,0,1,208.71,74.24Z" transform="translate(-28.33 -22.97)"/><path class="cls-2" d="M220.33,59.39a18.34,18.34,0,0,1,10.31,3.88c0-.34,0-.67,0-1a21.92,21.92,0,0,0-5.74-14.81,18.35,18.35,0,0,0-10,4.56A12,12,0,0,1,220.33,59.39Z" transform="translate(-28.33 -22.97)"/><path class="cls-3" d="M208.71,50.27A11.85,11.85,0,0,1,214.89,52a18.35,18.35,0,0,1,10-4.56,21.92,21.92,0,0,0-15.21-7.13,18.34,18.34,0,0,0-3.88,10.32A11.82,11.82,0,0,1,208.71,50.27Z" transform="translate(-28.33 -22.97)"/><path class="cls-2" d="M192.49,77.06a18.37,18.37,0,0,0,10-4.55,12,12,0,0,1-5.45-7.38,18.34,18.34,0,0,1-10.31-3.88c0,.33,0,.67,0,1A21.85,21.85,0,0,0,192.49,77.06Z" transform="translate(-28.33 -22.97)"/><path class="cls-3" d="M196.72,62.26a11.8,11.8,0,0,1,1.74-6.18,18.38,18.38,0,0,1-4.56-10,21.94,21.94,0,0,0-7.13,15.21,18.34,18.34,0,0,0,10.31,3.88A12.33,12.33,0,0,1,196.72,62.26Z" transform="translate(-28.33 -22.97)"/><path class="cls-2" d="M205.84,50.64a18.34,18.34,0,0,1,3.88-10.32l-1,0A21.87,21.87,0,0,0,193.9,46a18.38,18.38,0,0,0,4.56,10A12,12,0,0,1,205.84,50.64Z" transform="translate(-28.33 -22.97)"/><path class="cls-3" d="M215.57,65.31a13.86,13.86,0,0,0-6.45-3l-.23,0-.18,0h0a13.82,13.82,0,0,1,2.7,7,22.72,22.72,0,0,1,.18,4.61A12,12,0,0,0,219,68.44,22.86,22.86,0,0,0,215.57,65.31Z" transform="translate(-28.33 -22.97)"/><path class="cls-2" d="M215.72,59.56A14,14,0,0,0,209.05,62l-.2.13-.14.11.18,0,.23,0a13.86,13.86,0,0,1,6.45,3A22.86,22.86,0,0,1,219,68.44a11.94,11.94,0,0,0,1.73-6.18,11.81,11.81,0,0,0-.36-2.87A22.69,22.69,0,0,0,215.72,59.56Z" transform="translate(-28.33 -22.97)"/><polygon class="cls-3" points="180.38 39.28 180.37 39.28 180.37 39.28 180.38 39.28"/><path class="cls-3" d="M211.76,55.39a14.06,14.06,0,0,0-3,6.45l0,.24,0,.17h0l.14-.11.2-.13a14,14,0,0,1,6.67-2.45,22.69,22.69,0,0,1,4.61-.17A12,12,0,0,0,214.89,52,23.28,23.28,0,0,0,211.76,55.39Z" transform="translate(-28.33 -22.97)"/><path class="cls-3" d="M208.7,62.25h0v0Z" transform="translate(-28.33 -22.97)"/><polygon class="cls-3" points="180.36 39.29 180.37 39.29 180.37 39.28 180.36 39.29"/><path class="cls-3" d="M205.66,69.12a13.89,13.89,0,0,0,3-6.86h0a13.9,13.9,0,0,1-7,2.69,22.79,22.79,0,0,1-4.62.18,12,12,0,0,0,5.45,7.38A22.86,22.86,0,0,0,205.66,69.12Z" transform="translate(-28.33 -22.97)"/><path class="cls-2" d="M211.58,73.88a22.72,22.72,0,0,0-.18-4.61,13.82,13.82,0,0,0-2.7-7,13.89,13.89,0,0,1-3,6.86,22.86,22.86,0,0,1-3.13,3.39,11.82,11.82,0,0,0,9.05,1.37Z" transform="translate(-28.33 -22.97)"/><path class="cls-2" d="M201.7,65a13.9,13.9,0,0,0,7-2.69v0a13.89,13.89,0,0,1-6.85-3,23.85,23.85,0,0,1-3.38-3.13,11.8,11.8,0,0,0-1.74,6.18,12.33,12.33,0,0,0,.36,2.87A22.79,22.79,0,0,0,201.7,65Z" transform="translate(-28.33 -22.97)"/><path class="cls-3" d="M201.84,59.21a13.89,13.89,0,0,0,6.85,3,1.47,1.47,0,0,1-.1-.13l-.13-.19A14,14,0,0,1,206,55.25a22.69,22.69,0,0,1-.17-4.61,12,12,0,0,0-7.38,5.44A23.85,23.85,0,0,0,201.84,59.21Z" transform="translate(-28.33 -22.97)"/><path class="cls-2" d="M206,55.25a14,14,0,0,0,2.45,6.67l.13.19a1.47,1.47,0,0,0,.1.13h0l0-.17,0-.24a14.06,14.06,0,0,1,3-6.45A23.28,23.28,0,0,1,214.89,52a11.68,11.68,0,0,0-9-1.37A22.69,22.69,0,0,0,206,55.25Z" transform="translate(-28.33 -22.97)"/></svg>